<svg viewBox="0 0 60 60" xmlns="http://www.w3.org/2000/svg">
  <path d="M13.647 27.964s5.31-6.233 10.112-7.973c4.8-1.74 7.94-1.79 10.434-2.795 2.496-1.004 3.457 2.13 2.946 3.135-.513 1.004-3.137 2.78-4.994 3.25-1.857.47-3.394.343-3.842.906l24.476.68s2.22.688 2.22 2.43c0 1.74-1.6 2.517-2.05 2.517-.448 0-16.06.094-16.06.094l3.983.468s1.647.762 1.647 2.838-2.114 2.228-2.114 2.228l-4.057.63 2.764-.066s1.674.388 1.674 2.53c0 2.143-1.986 2.537-3.138 2.537-1.153 0-4.505.628-4.505.628s3.994.396 3.994 2.273c0 1.876-1.28 2.728-2.818 2.728H20.66s-4.41-1.053-6.46-2.727H9.91c-2.712 0-4.91-2.2-4.91-4.913V32.88c0-2.715 2.204-4.916 4.905-4.916h3.742z" stroke="#6D7F8F" stroke-width="3" fill="#6D7F8F" stroke-linecap="round" stroke-linejoin="round" fill-rule="evenodd"/>
</svg>
