<svg viewBox="0 0 60 60" xmlns="http://www.w3.org/2000/svg">
  <g transform="translate(3 9)" stroke="#4F8EC1" stroke-width="2" fill="#4F8EC1" fill-rule="evenodd">
    <ellipse stroke-linecap="round" stroke-linejoin="round" cx="18" cy="32" rx="4" ry="5"/>
    <ellipse stroke-linecap="round" stroke-linejoin="round" cx="37" cy="32" rx="4" ry="5"/>
    <path d="M3.646 38.757c3.297 5.17 8.223 7.443 13.893 7.927 4.82.41 9.7.3 14.55.31 3.46.005 6.89-.375 10.18-1.66 5.09-1.994 8.46-5.652 10.07-11.042.93-3.137 1.31-6.35 1.2-9.625-.11-3.453-1.015-6.642-3.038-9.428-.627-.87-1.09-1.6-.97-2.86.17-1.77-.087-3.6-.33-5.38-.303-2.25-.88-4.44-1.793-6.56-2.26.48-4.496.87-6.49 2.02C38.8 3.68 36.744 5.012 34.65 6.27c-.24.142-.58.22-.847.175-4.492-.784-8.98-.755-13.475-.02-.34.055-.77-.06-1.075-.24-1.113-.666-2.166-1.434-3.28-2.09C13.063 2.397 10.06.9 6.603.46c-.098.215-.18.37-.24.53-1.04 2.806-1.66 5.712-1.857 8.706-.072 1.088-.153 2.202 0 3.268.086.608 0 .97-.348 1.404-1.214 1.512-2.16 3.18-2.776 5.054-1.175 3.574-1.1 7.216-.57 10.87.432 2.992 1.184 5.883 2.83 8.467zm11.82-16.627c2.79-.067 5.586.164 8.38.176 3.08.013 6.16-.066 9.24-.13 1.77-.035 3.538-.144 5.308-.175 4.78-.08 7.656 4.4 8.1 7.64.29 2.118.03 4.18-.638 6.215-.944 2.87-2.932 4.61-5.644 5.54-3.023 1.04-6.158 1.49-9.34 1.59-1.31.043-2.625.01-3.938.01-4.06.057-8.102-.127-12.05-1.245-4.96-1.405-6.8-4.178-7.28-9.267-.3-3.202.343-6.167 2.83-8.452 1.44-1.32 3.203-1.85 5.032-1.893z"/>
  </g>
</svg>
