<svg viewBox="0 0 60 60" xmlns="http://www.w3.org/2000/svg">
  <path d="M49.71 18.265s4.08-.327 5.716-1.567c0 0-.392 1.427-5.3 5.942 0 0 1.652 24.366-23.528 30.333 0 0-12.77 2.768-22.024-4.294 0 0 9.687 1.745 15.137-4.37 0 0-7.03.07-9.25-7.21 0 0 2.655.582 4.233-.145 0 0-7.963-1.676-7.82-10.486 0 0 2.153 1.603 4.09 1.31 0 0-7.173-6.19-2.726-13.904 0 0 9.61 11.534 21.523 10.85-.21-.827-.32-1.692-.32-2.586 0-5.733 4.582-10.384 10.235-10.384 2.856 0 5.44 1.188 7.297 3.103 1.36.02 4.16-.226 6.958-2.258 0 0 .16 2.222-4.218 5.66z" stroke="#6D7F8F" stroke-width="2" fill="#6D7F8F" stroke-linecap="round" stroke-linejoin="round" fill-rule="evenodd"/>
</svg>
